<?xml version="1.0" encoding="UTF-8"?>
<svg width="499.99999999999994" height="190" xmlns="http://www.w3.org/2000/svg" xmlns:svg="http://www.w3.org/2000/svg">
 <!-- Created with SVG-edit - http://svg-edit.googlecode.com/ -->

 <g>
  <title>Fondo</title>
  <rect id="svg_24" height="194.625027" width="505.12493" y="-0.958323" x="-0.916073" stroke-linecap="null" stroke-linejoin="null" stroke-dasharray="null" stroke-width="0.5" stroke="#fafafa" fill="#005fbf"/>
  <polygon stroke-width="1.2" stroke="#005fbf" points="112.6500358581543,-11.385929107666016 115.84463119506836,54.37739181518555 128.5804100036621,-10.219978332519531 122.16573715209961,55.30766677856445 144.1712303161621,-6.746971130371094 128.2840232849121,57.14838790893555 159.09025192260742,-1.0409317016601562 134.0691032409668,59.86032485961914 173.01946640014648,6.776527404785156 139.3976707458496,63.38566970825195 185.66202926635742,16.53879165649414 144.15616989135742,67.64929580688477 196.74845504760742,28.037792205810547 148.24316024780273,72.56032943725586 206.04247665405273,41.028446197509766 151.57155990600586,78.01409530639648 213.34598922729492,55.233882904052734 154.0704002380371,83.89435958862305 218.50335311889648,70.35134506225586 155.68642807006836,90.07580184936523 221.4046287536621,86.05862045288086 156.3852195739746,96.42666244506836 221.9880027770996,102.02093124389648 156.15188217163086,102.81158065795898 220.24102401733398,117.89809799194336 154.99135971069336,109.09450912475586 216.20092391967773,133.35168075561523 152.9284324645996,115.14147567749023 209.95380783081055,148.05234909057617 150.00701522827148,120.82366561889648 201.63285446166992,161.68676376342773 146.28940963745117,126.01992416381836 191.4153709411621,173.96435165405273 141.8548240661621,130.6195182800293 179.5191307067871,184.62340927124023 136.7978172302246,134.5244255065918 166.1977195739746,193.43679428100586 131.22613143920898,137.65140914916992 151.73501205444336,200.21660995483398 125.25851058959961,139.93383407592773 136.43928146362305,204.81841659545898 119.02218246459961,141.32302474975586 120.63653182983398,207.14410018920898 112.6500358581543,141.78940963745117 104.66355514526367,207.14410018920898 106.27788925170898,141.32302474975586 88.86079025268555,204.81841659545898 100.04156112670898,139.93383407592773 73.56506729125977,200.21660995483398 94.07395553588867,137.65140914916992 59.10236740112305,193.43679428100586 88.50226974487305,134.5244255065918 45.780941009521484,184.62340927124023 83.44524002075195,130.6195182800293 33.88471603393555,173.96435165405273 79.01066970825195,126.01992416381836 23.667232513427734,161.68676376342773 75.29306411743164,120.82366561889648 15.346263885498047,148.05234909057617 72.37165451049805,115.14147567749023 9.099159240722656,133.35168075561523 70.30871200561523,109.09450912475586 5.059062957763672,117.89809799194336 69.14819717407227,102.81158065795898 3.3120765686035156,102.02093124389648 68.91485214233398,96.42666244506836 3.8954429626464844,86.05862045288086 69.61364364624023,90.07580184936523 6.796726226806641,70.35134506225586 71.22968673706055,83.89435958862305 11.954082489013672,55.233882904052734 73.7285270690918,78.01409530639648 19.25760269165039,41.028446197509766 77.05691909790039,72.56032943725586 28.551616668701172,28.037792205810547 81.1439094543457,67.64929580688477 39.6380500793457,16.53879165649414 85.90240097045898,63.38566970825195 52.28060531616211,6.776527404785156 91.2309684753418,59.86032485961914 66.2098274230957,-1.0409317016601562 97.01604843139648,57.14838790893555 81.12884140014648,-6.746971130371094 103.13433456420898,55.30766677856445 96.71967697143555,-10.219978332519531 109.45544052124023,54.37739181518555 112.6500358581543,-11.385929107666016 115.84463119506836,54.37739181518555 " strokeWidth="0.2" strokecolor="#007fff" fill="#ffffff" orient="point" r2="43.764382" r="109.410956" point="43" shape="star" id="svg_17" cy="53.587523" cx="40.650028"/>
  <rect id="svg_20" height="51.187509" width="86.062517" y="90.150019" x="76.087523" stroke-linecap="null" stroke-linejoin="null" stroke-dasharray="null" stroke-width="0.5" stroke="#fafafa" fill="#ffffff"/>
  <path id="svg_14" d="m174.544998,76.152496c-41.432999,4.251007 0.199005,-2.520996 0.199005,-3.800995c0,-22.188908 -18.556,-40.175007 -41.449997,-40.175007c-17.768005,0 -32.884003,10.857704 -38.779007,26.092804c-3.906006,-4.153801 -9.477997,-6.807205 -15.731003,-6.807205c-11.792007,0 -21.347904,9.261406 -21.347904,20.69141c0,1.347992 33.140903,9.425995 0.409904,3.939987c-32.731102,-5.485992 -54.2061,18.659012 -54.7686,34.613007c-0.5625,15.953003 11.8507,39.139008 60.159599,29.139008l15.334003,0c-0.835007,-1.709 -1.326004,-3.572006 -1.326004,-5.518997c0,-3.440002 1.378998,-6.687012 3.893997,-9.098007l28.682007,-27.826004c2.487,-2.422989 5.815994,-3.761993 9.371002,-3.761993c3.582001,0 6.910995,1.35199 9.399002,3.774002l28.668991,27.826996c2.501999,2.397995 3.881012,5.645004 3.881012,9.085007c0,1.951996 -0.483002,3.817993 -1.326004,5.518997l8.699997,0c37.317001,13 53.598007,-12.320999 54.160995,-26.139008c0.562012,-13.817993 -6.69899,-41.805008 -48.130997,-37.554001zm-50.662994,25.789001c-1.279999,-1.252991 -2.985001,-1.871002 -4.682007,-1.871002s-3.395996,0.618011 -4.688004,1.871002l-28.697998,27.834c-2.587997,2.498001 -2.580002,6.587997 0.005997,9.087006l3.688004,3.567993c2.585999,2.501007 6.393997,2.886002 8.462997,0.880005s3.767014,-0.764999 3.767014,2.778992l0,7.957001c0,3.528 2.98999,6.429001 6.630997,6.429001l21.653992,0c3.656006,0 6.633011,-2.901001 6.633011,-6.429001l0,-7.957001c0,-3.543991 1.697998,-4.784988 3.771988,-2.778992c2.070007,2.005997 5.882004,1.621002 8.463013,-0.880005l3.688995,-3.567993c2.584991,-2.499008 2.584991,-6.589005 0.005005,-9.087006l-28.703003,-27.834z" stroke-linecap="null" stroke-linejoin="null" stroke-dasharray="null" stroke-width="1.5" stroke="#f9fbfc" fill="#007fff"/>
  <path id="svg_16" d="m109.234238,133.496414l19.641846,0.006958l-0.63736,0.873672l-18.359528,-0.020905l-0.644958,-0.859726l0,0zm0.13501,-11.621887l19.379364,-0.020874l0.562469,0.896255l-20.511734,0.006943l0.569901,-0.882324l0,0zm-1.912476,5.823547l23.189362,-0.020828l-0.029968,0.89624l-23.14444,-0.013885l-0.014954,-0.861526l0,0zm23.208557,0.083176c0,5.933426 -5.205444,10.76033 -11.605026,10.76033c-6.396652,0 -11.601181,-4.82782 -11.601181,-10.76033c0,-5.932648 5.20549,-10.759583 11.601181,-10.759583c6.399582,-0.000839 11.605026,4.826935 11.605026,10.759583zm-11.604095,-11.621918c-6.907288,0 -12.528214,5.213058 -12.528214,11.621017c0,6.408829 5.620926,11.621841 12.528214,11.621841c6.911133,0 12.531113,-5.213013 12.531113,-11.621841c0,-6.407959 -5.61998,-11.621017 -12.531113,-11.621017zm3.515808,11.621918c0,6.340317 -1.852219,10.76033 -3.515808,10.76033c-1.661682,0 -3.513824,-4.420013 -3.513824,-10.76033c0,-6.342178 1.851257,-10.759583 3.513824,-10.759583c1.662704,-0.000839 3.515808,4.417404 3.515808,10.759583zm-3.515808,-11.621918c-2.885559,0 -4.442719,5.987976 -4.442719,11.621017c0,5.634735 1.557159,11.621841 4.442719,11.621841c2.885635,0 4.445633,-5.988022 4.445633,-11.621841c-0.000961,-5.633041 -1.559998,-11.621017 -4.445633,-11.621017zm8.233948,11.621918c0,5.933426 -3.694962,10.76033 -8.233948,10.76033c-4.537918,0 -8.231064,-4.82782 -8.231064,-10.76033c0,-5.932648 3.693146,-10.759583 8.231064,-10.759583c4.538986,-0.000839 8.233948,4.826935 8.233948,10.759583zm-8.233948,-11.621918c-5.049561,0 -9.159958,5.213058 -9.159958,11.621017c0,6.408829 4.110397,11.621841 9.159958,11.621841c5.051468,0 9.16098,-5.213013 9.16098,-11.621841c0,-6.407959 -4.109512,-11.621017 -9.16098,-11.621017z" stroke-linecap="null" stroke-linejoin="null" stroke-dasharray="null" stroke-width="0.2" stroke="#fcf9f9" fill="#f9f9f9"/>
  <text transform="matrix(4.12395, 0, 0, 2.33361, -698.635, -32.8026)" xml:space="preserve" text-anchor="middle" font-family="Monospace" font-size="24" id="svg_47" y="62.906141" x="259.710686" stroke-linecap="null" stroke-linejoin="null" stroke-dasharray="null" stroke-width="0" stroke="#fafafa" fill="#f9f9f9">SELR</text>
  <g id="svg_54">
   <ellipse ry="1.0199" rx="1.548661" id="svg_34" cy="130.989545" cx="232.89801" stroke-linecap="null" stroke-linejoin="null" stroke-dasharray="null" stroke-width="0.5" stroke="#fafafa" fill="#ffffff"/>
   <polygon stroke-width="0.5" points="505.7270202636719,131.02598571777344 232.97267150878906,132.1960906982422 232.97267150878906,129.85586547851562 505.7270202636719,131.02598571777344 " strokeWidth="0.5" strokecolor="none" fill="#ffffff" edge="42.198087" orient="x" sides="3" shape="regularPoly" id="svg_46" cy="148.400019" cx="243.649865"/>
  </g>
  <g transform="rotate(-90, 246.8, 114.401)" id="svg_55">
   <ellipse id="svg_56" ry="0.847533" rx="0.319081" cy="114.370746" cx="218.853056" stroke-linecap="null" stroke-linejoin="null" stroke-dasharray="null" stroke-width="0.5" stroke="#fafafa" fill="#ffffff"/>
   <polygon id="svg_57" stroke-width="0.5" points="275.06591796875,114.40101623535156 218.86846923828125,115.37338256835938 218.86846923828125,113.42866516113281 275.06591796875,114.40101623535156 " strokeWidth="0.5" strokecolor="none" fill="#ffffff" edge="42.198087" orient="x" sides="3" shape="regularPoly" cy="148.400019" cx="243.649865"/>
  </g>
 </g>
</svg>